<svg width="98" height="124" viewBox="0 0 98 124" fill="none" xmlns="http://www.w3.org/2000/svg">
<g clip-path="url(#clip0)" filter="url(#filter0_d)">
<path d="M47.0457 11C28.8127 11 13.9795 25.835 13.9795 44.0703C13.9795 61.7103 44.2098 101.901 45.4976 103.605C45.8594 104.091 46.4391 104.375 47.0459 104.375C47.6528 104.375 48.2325 104.091 48.5943 103.605C49.8818 101.901 80.1124 61.7105 80.1124 44.0703C80.112 25.835 65.2788 11 47.0457 11ZM47.0457 61.5781C37.3943 61.5781 29.54 53.7229 29.54 44.0703C29.54 34.4176 37.3943 26.5624 47.0457 26.5624C56.6972 26.5624 64.5514 34.4176 64.5514 44.0703C64.5514 53.7229 56.6972 61.5781 47.0457 61.5781Z" fill="#EB5757"/>
</g>
<defs>
<filter id="filter0_d" x="-12.6362" y="0" width="123.364" height="123.375" filterUnits="userSpaceOnUse" color-interpolation-filters="sRGB">
<feFlood flood-opacity="0" result="BackgroundImageFix"/>
<feColorMatrix in="SourceAlpha" type="matrix" values="0 0 0 0 0 0 0 0 0 0 0 0 0 0 0 0 0 0 127 0"/>
<feOffset dx="2" dy="4"/>
<feGaussianBlur stdDeviation="7.5"/>
<feColorMatrix type="matrix" values="0 0 0 0 0.0229167 0 0 0 0 0.048125 0 0 0 0 0.275 0 0 0 0.15 0"/>
<feBlend mode="normal" in2="BackgroundImageFix" result="effect1_dropShadow"/>
<feBlend mode="normal" in="SourceGraphic" in2="effect1_dropShadow" result="shape"/>
</filter>
<clipPath id="clip0">
<rect width="93.3637" height="93.375" fill="white" transform="translate(0.36377 11)"/>
</clipPath>
</defs>
</svg>
