<svg width="97" height="124" viewBox="0 0 97 124" fill="none" xmlns="http://www.w3.org/2000/svg">
<g clip-path="url(#clip0)" filter="url(#filter0_d)">
<path d="M46.682 11C28.4489 11 13.6157 25.835 13.6157 44.0703C13.6157 61.7103 43.8461 101.901 45.1338 103.605C45.4956 104.091 46.0753 104.375 46.6822 104.375C47.2891 104.375 47.8688 104.091 48.2305 103.605C49.5181 101.901 79.7487 61.7105 79.7487 44.0703C79.7483 25.835 64.9151 11 46.682 11ZM46.682 61.5781C37.0305 61.5781 29.1763 53.7229 29.1763 44.0703C29.1763 34.4176 37.0305 26.5624 46.682 26.5624C56.3335 26.5624 64.1877 34.4176 64.1877 44.0703C64.1877 53.7229 56.3335 61.5781 46.682 61.5781Z" fill="url(#paint0_linear)"/>
</g>
<defs>
<filter id="filter0_d" x="-13" y="0" width="123.364" height="123.375" filterUnits="userSpaceOnUse" color-interpolation-filters="sRGB">
<feFlood flood-opacity="0" result="BackgroundImageFix"/>
<feColorMatrix in="SourceAlpha" type="matrix" values="0 0 0 0 0 0 0 0 0 0 0 0 0 0 0 0 0 0 127 0"/>
<feOffset dx="2" dy="4"/>
<feGaussianBlur stdDeviation="7.5"/>
<feColorMatrix type="matrix" values="0 0 0 0 0.0229167 0 0 0 0 0.048125 0 0 0 0 0.275 0 0 0 0.15 0"/>
<feBlend mode="normal" in2="BackgroundImageFix" result="effect1_dropShadow"/>
<feBlend mode="normal" in="SourceGraphic" in2="effect1_dropShadow" result="shape"/>
</filter>
<linearGradient id="paint0_linear" x1="1.26746" y1="11" x2="96.027" y2="31.3729" gradientUnits="userSpaceOnUse">
<stop stop-color="#4BD8B5"/>
<stop offset="1" stop-color="#49D6DF"/>
</linearGradient>
<clipPath id="clip0">
<rect width="93.3638" height="93.375" fill="white" transform="translate(0 11)"/>
</clipPath>
</defs>
</svg>
