<svg width="98" height="125" viewBox="0 0 98 125" fill="none" xmlns="http://www.w3.org/2000/svg">
<g clip-path="url(#clip0)" filter="url(#filter0_d)">
<path d="M47.3158 11.6289C29.0827 11.6289 14.2495 26.4639 14.2495 44.6992C14.2495 62.3392 44.4798 102.529 45.7676 104.234C46.1294 104.72 46.7091 105.004 47.3159 105.004C47.9228 105.004 48.5025 104.72 48.8643 104.234C50.1519 102.529 80.3824 62.3394 80.3824 44.6992C80.382 26.4639 65.5489 11.6289 47.3158 11.6289ZM47.3158 62.207C37.6643 62.207 29.8101 54.3518 29.8101 44.6992C29.8101 35.0465 37.6643 27.1913 47.3158 27.1913C56.9672 27.1913 64.8215 35.0465 64.8215 44.6992C64.8215 54.3518 56.9672 62.207 47.3158 62.207Z" fill="url(#paint0_linear)"/>
</g>
<defs>
<filter id="filter0_d" x="-12.3662" y="0.628906" width="123.364" height="123.375" filterUnits="userSpaceOnUse" color-interpolation-filters="sRGB">
<feFlood flood-opacity="0" result="BackgroundImageFix"/>
<feColorMatrix in="SourceAlpha" type="matrix" values="0 0 0 0 0 0 0 0 0 0 0 0 0 0 0 0 0 0 127 0"/>
<feOffset dx="2" dy="4"/>
<feGaussianBlur stdDeviation="7.5"/>
<feColorMatrix type="matrix" values="0 0 0 0 0.0229167 0 0 0 0 0.048125 0 0 0 0 0.275 0 0 0 0.15 0"/>
<feBlend mode="normal" in2="BackgroundImageFix" result="effect1_dropShadow"/>
<feBlend mode="normal" in="SourceGraphic" in2="effect1_dropShadow" result="shape"/>
</filter>
<linearGradient id="paint0_linear" x1="1.90127" y1="11.6289" x2="96.6607" y2="32.0017" gradientUnits="userSpaceOnUse">
<stop stop-color="#4BD8B5"/>
<stop offset="1" stop-color="#49D6DF"/>
</linearGradient>
<clipPath id="clip0">
<rect width="93.3637" height="93.375" fill="white" transform="translate(0.633789 11.6289)"/>
</clipPath>
</defs>
</svg>
